# Blender v2.74 (sub 0) OBJ File: ''
# www.blender.org
mtllib cyl_7.mtl
o Cylinder
v 0.000000 -24.999979 -125.000008
v 0.000000 25.000021 -124.999992
v 24.386290 25.000019 -122.598152
v 24.386290 -24.999981 -122.598167
v 47.835430 25.000019 -115.484932
v 47.835430 -24.999981 -115.484947
v 69.446281 25.000017 -103.933693
v 69.446281 -24.999983 -103.933708
v 88.388344 25.000015 -88.388336
v 88.388344 -24.999985 -88.388351
v 103.933708 25.000011 -69.446266
v 103.933708 -24.999989 -69.446281
v 115.484940 25.000008 -47.835426
v 115.484940 -24.999992 -47.835434
v 122.598160 25.000004 -24.386290
v 122.598160 -24.999996 -24.386297
v 125.000000 25.000000 -0.000005
v 125.000000 -25.000000 -0.000013
v 122.598167 24.999996 24.386280
v 122.598167 -25.000004 24.386272
v 115.484947 24.999992 47.835415
v 115.484947 -25.000008 47.835407
v 103.933708 24.999989 69.446281
v 103.933708 -25.000011 69.446266
v 88.388344 24.999985 88.388351
v 88.388344 -25.000015 88.388336
v 69.446274 24.999983 103.933716
v 69.446274 -25.000017 103.933701
v 47.835411 24.999981 115.484962
v 47.835411 -25.000019 115.484947
v 24.386261 24.999981 122.598175
v 24.386261 -25.000019 122.598160
v -0.000041 24.999979 125.000008
v -0.000041 -25.000021 124.999992
v -24.386341 24.999981 122.598160
v -24.386341 -25.000019 122.598145
v -47.835484 24.999981 115.484924
v -47.835484 -25.000019 115.484909
v -69.446342 24.999983 103.933670
v -69.446342 -25.000017 103.933655
v -88.388405 24.999985 88.388298
v -88.388405 -25.000015 88.388283
v -103.933754 24.999989 69.446213
v -103.933754 -25.000011 69.446198
v -115.484985 24.999992 47.835339
v -115.484985 -25.000008 47.835331
v -122.598175 24.999996 24.386187
v -122.598175 -25.000004 24.386179
v -125.000000 25.000000 -0.000117
v -125.000000 -25.000000 -0.000125
v -122.598137 25.000004 -24.386415
v -122.598137 -24.999996 -24.386423
v -115.484886 25.000008 -47.835556
v -115.484886 -24.999992 -47.835564
v -103.933617 25.000011 -69.446396
v -103.933617 -24.999989 -69.446411
v -88.388237 25.000015 -88.388451
v -88.388237 -24.999985 -88.388466
v -69.446136 25.000017 -103.933792
v -69.446136 -24.999983 -103.933807
v -47.835262 25.000019 -115.485008
v -47.835262 -24.999981 -115.485023
v -24.386103 25.000019 -122.598183
v -24.386103 -24.999981 -122.598198
vn 0.098000 0.000000 -0.995200
vn 0.290300 0.000000 -0.956900
vn 0.471400 0.000000 -0.881900
vn 0.634400 0.000000 -0.773000
vn 0.773000 0.000000 -0.634400
vn 0.881900 0.000000 -0.471400
vn 0.956900 -0.000000 -0.290300
vn 0.995200 0.000000 -0.098000
vn 0.995200 -0.000000 0.098000
vn 0.956900 -0.000000 0.290300
vn 0.881900 -0.000000 0.471400
vn 0.773000 -0.000000 0.634400
vn 0.634400 -0.000000 0.773000
vn 0.471400 -0.000000 0.881900
vn 0.290300 -0.000000 0.956900
vn 0.098000 -0.000000 0.995200
vn -0.098000 -0.000000 0.995200
vn -0.290300 -0.000000 0.956900
vn -0.471400 -0.000000 0.881900
vn -0.634400 -0.000000 0.773000
vn -0.773000 -0.000000 0.634400
vn -0.881900 -0.000000 0.471400
vn -0.956900 0.000000 0.290300
vn -0.995200 0.000000 0.098000
vn -0.995200 -0.000000 -0.098000
vn -0.956900 0.000000 -0.290300
vn -0.881900 0.000000 -0.471400
vn -0.773000 0.000000 -0.634400
vn -0.634400 0.000000 -0.773000
vn -0.471400 0.000000 -0.881900
vn -0.000000 1.000000 0.000000
vn -0.098000 0.000000 -0.995200
vn -0.290300 0.000000 -0.956900
vn 0.000000 -1.000000 -0.000000
usemtl Material.006
s 1
f 1//1 2//1 3//1 4//1
f 4//2 3//2 5//2 6//2
f 6//3 5//3 7//3 8//3
f 8//4 7//4 9//4 10//4
f 10//5 9//5 11//5 12//5
f 12//6 11//6 13//6 14//6
f 14//7 13//7 15//7 16//7
f 16//8 15//8 17//8 18//8
f 18//9 17//9 19//9 20//9
f 20//10 19//10 21//10 22//10
f 22//11 21//11 23//11 24//11
f 24//12 23//12 25//12 26//12
f 26//13 25//13 27//13 28//13
f 28//14 27//14 29//14 30//14
f 30//15 29//15 31//15 32//15
f 32//16 31//16 33//16 34//16
f 34//17 33//17 35//17 36//17
f 36//18 35//18 37//18 38//18
f 38//19 37//19 39//19 40//19
f 40//20 39//20 41//20 42//20
f 42//21 41//21 43//21 44//21
f 44//22 43//22 45//22 46//22
f 46//23 45//23 47//23 48//23
f 48//24 47//24 49//24 50//24
f 50//25 49//25 51//25 52//25
f 52//26 51//26 53//26 54//26
f 54//27 53//27 55//27 56//27
f 56//28 55//28 57//28 58//28
f 58//29 57//29 59//29 60//29
f 60//30 59//30 61//30 62//30
f 3//31 2//31 63//31 61//31 59//31 57//31 55//31 53//31 51//31 49//31 47//31 45//31 43//31 41//31 39//31 37//31 35//31 33//31 31//31 29//31 27//31 25//31 23//31 21//31 19//31 17//31 15//31 13//31 11//31 9//31 7//31 5//31
f 64//32 63//32 2//32 1//32
f 62//33 61//33 63//33 64//33
f 1//34 4//34 6//34 8//34 10//34 12//34 14//34 16//34 18//34 20//34 22//34 24//34 26//34 28//34 30//34 32//34 34//34 36//34 38//34 40//34 42//34 44//34 46//34 48//34 50//34 52//34 54//34 56//34 58//34 60//34 62//34 64//34
